# xmcd CD database file generated by OrangeCD 6.3
#
# Track frame offsets:
#	150
#	12251
#	26045
#	38007
#	52158
#	65821
#	76181
#	87489
#	100294
#	115650
#	127849
#	142270
#	155245
#	171032
#	184857
#	195103
#	207347
#	219742
#
# Disc length: 3074 seconds
#
# Revision: 1
# Processed by: cddbd v1.5.2PL0 Copyright (c) Steve Scherf et al.
# Submitted via: OrangeCD 6.3
#
DISCID=020c0012
DTITLE=Dolly Parton - The Bluegrass Collection
DYEAR=2003
DGENRE=Bluegrass
TTITLE0=The Bargain Store
TTITLE1=My Tennessee Mountain Home
TTITLE2=To Daddy
TTITLE3=Mule Skinner Blues
TTITLE4=Joshua
TTITLE5=River Of Happiness
TTITLE6=Old Black Kettle
TTITLE7=Daddy's Working Boots
TTITLE8=In The Good Old Days (When Times Were Bad)
TTITLE9=Back Home
TTITLE10=The Better Part Of Life
TTITLE11=J. J. Sneed
TTITLE12=Daddy's Moonshine Still
TTITLE13=Coat Of Many Colors
TTITLE14=My Blue Tears
TTITLE15=Early Morning Breeze
TTITLE16=In The Ghetto
TTITLE17=Shattered Image
EXTD=
EXTT0=
EXTT1=
EXTT2=
EXTT3=
EXTT4=
EXTT5=
EXTT6=
EXTT7=
EXTT8=
EXTT9=
EXTT10=
EXTT11=
EXTT12=
EXTT13=
EXTT14=
EXTT15=
EXTT16=
EXTT17=
PLAYORDER=
